HIERARCHY
ROOT Hips
{
	OFFSET 0.000000 0.000000 0.053700
	CHANNELS 6 Xposition Yposition Zposition Xrotation Yrotation Zrotation
	JOINT Spine
	{
		OFFSET 0.000000 -0.000000 0.071600
		CHANNELS 6 Xposition Yposition Zposition Xrotation Yrotation Zrotation
		JOINT Spine1
		{
			OFFSET 0.000000 -0.000000 0.081800
			CHANNELS 3 Xrotation Yrotation Zrotation
			JOINT Spine2
			{
				OFFSET 0.000000 -0.000000 0.081800
				CHANNELS 3 Xrotation Yrotation Zrotation
				JOINT Neck
				{
					OFFSET 0.000000 -0.000000 0.071600
					CHANNELS 6 Xposition Yposition Zposition Xrotation Yrotation Zrotation
					JOINT Head
					{
						OFFSET 0.000000 -0.000000 0.051100
						CHANNELS 3 Xrotation Yrotation Zrotation
						End Site
						{
							OFFSET 0.000000 -0.000000 0.051100
						}
					}
				}
				JOINT LeftShoulder
				{
					OFFSET 0.024900 -0.000000 0.061300
					CHANNELS 6 Xposition Yposition Zposition Xrotation Yrotation Zrotation
					JOINT LeftArm
					{
						OFFSET 0.049900 -0.000000 0.000000
						CHANNELS 3 Xrotation Yrotation Zrotation
						JOINT LeftForeArm
						{
							OFFSET 0.099700 -0.000000 0.000000
							CHANNELS 3 Xrotation Yrotation Zrotation
							JOINT LeftHand
							{
								OFFSET 0.099700 -0.000000 0.000000
								CHANNELS 3 Xrotation Yrotation Zrotation
								End Site
								{
									OFFSET 0.099700 -0.000000 0.000000
								}
							}
						}
					}
				}
				JOINT RightShoulder
				{
					OFFSET -0.024900 -0.000000 0.061300
					CHANNELS 6 Xposition Yposition Zposition Xrotation Yrotation Zrotation
					JOINT RightArm
					{
						OFFSET -0.049900 -0.000000 0.000000
						CHANNELS 3 Xrotation Yrotation Zrotation
						JOINT RightForeArm
						{
							OFFSET -0.099700 -0.000000 0.000000
							CHANNELS 3 Xrotation Yrotation Zrotation
							JOINT RightHand
							{
								OFFSET -0.099700 -0.000000 0.000000
								CHANNELS 3 Xrotation Yrotation Zrotation
								End Site
								{
									OFFSET -0.099700 -0.000000 0.000000
								}
							}
						}
					}
				}
			}
		}
	}
	JOINT LeftUpLeg
	{
		OFFSET 0.049900 0.000000 0.000000
		CHANNELS 6 Xposition Yposition Zposition Xrotation Yrotation Zrotation
		JOINT LeftLeg
		{
			OFFSET 0.000000 0.000000 -0.255600
			CHANNELS 3 Xrotation Yrotation Zrotation
			JOINT LeftFoot
			{
				OFFSET 0.000000 0.000000 -0.255600
				CHANNELS 3 Xrotation Yrotation Zrotation
				JOINT LeftToeBase
				{
					OFFSET 0.000000 0.019731 -0.051125
					CHANNELS 3 Xrotation Yrotation Zrotation
					End Site
					{
						OFFSET 0.000000 0.054800 0.000000
					}
				}
			}
		}
	}
	JOINT RightUpLeg
	{
		OFFSET -0.049900 0.000000 0.000000
		CHANNELS 6 Xposition Yposition Zposition Xrotation Yrotation Zrotation
		JOINT RightLeg
		{
			OFFSET 0.000000 0.000000 -0.255600
			CHANNELS 3 Xrotation Yrotation Zrotation
			JOINT RightFoot
			{
				OFFSET 0.000000 0.000000 -0.255600
				CHANNELS 3 Xrotation Yrotation Zrotation
				JOINT RightToeBase
				{
					OFFSET 0.000000 0.019731 -0.051125
					CHANNELS 3 Xrotation Yrotation Zrotation
					End Site
					{
						OFFSET 0.000000 0.054800 0.000000
					}
				}
			}
		}
	}
}
MOTION
Frames: 14
Frame Time: 0.033333
-0.010921 -0.003644 0.440409 -11.732111 28.216022 -40.717664 -0.000000 -0.000000 0.071600 13.561586 2.562343 9.763075 1.375925 -0.144551 2.848194 1.392723 -0.113995 2.822185 -0.000000 -0.000000 0.071600 3.471723 -0.218831 -1.932770 -0.000001 0.000000 -0.000002 0.024900 -0.000000 0.061300 -1.587761 -0.728495 9.899986 17.401439 17.920982 25.672571 0.000001 0.000005 -41.661774 0.000001 -0.000001 0.000003 -0.024900 -0.000000 0.061300 0.525896 4.565746 3.702783 27.073801 -12.539855 -12.313725 -0.000003 0.000003 44.662279 0.000002 0.000000 -0.000000 0.049900 0.000000 -0.000000 -24.168797 7.395695 3.906797 34.094248 1.203838 -3.297584 32.708499 -19.408030 6.675454 0.000003 0.000000 -0.000001 -0.049900 -0.000000 0.000000 3.755766 12.003542 -19.933659 80.407227 -1.497121 6.650825 17.381737 -21.091038 4.278552 0.000000 -0.000000 -0.000000 
-0.006519 -0.003364 0.440534 -11.380939 27.959106 -41.941661 0.000000 0.000000 0.071600 13.602553 1.885654 10.726643 1.378767 -0.249573 3.067061 1.396792 -0.217782 3.038875 -0.000000 0.000000 0.071600 3.264514 -0.533196 -1.832778 0.000000 0.000001 -0.000002 0.024900 -0.000000 0.061300 -1.442438 -0.954858 8.888265 18.224635 19.758952 20.268726 0.000001 0.000008 -47.029261 0.000000 0.000000 -0.000002 -0.024900 0.000000 0.061300 0.640653 5.650833 4.038830 28.022028 -13.472799 -13.855973 -0.000003 -0.000009 50.555107 0.000003 -0.000000 -0.000000 0.049900 0.000000 -0.000000 -23.765204 7.559637 3.925457 31.816780 1.204722 -2.534026 34.046324 -19.216068 6.860073 -0.000002 -0.000000 0.000005 -0.049900 0.000000 -0.000000 2.518703 12.922775 -19.267745 80.678768 -1.495269 7.172311 18.041921 -20.694216 4.334003 -0.000002 0.000000 -0.000000 
0.009293 0.005705 0.455603 -9.208241 27.269146 -41.357540 -0.000000 0.000000 0.071600 13.240146 -1.038750 9.149037 1.196690 -0.688188 2.471478 1.216119 -0.665825 2.437483 -0.000000 -0.000000 0.071600 3.068615 -0.530888 -1.310833 0.000000 0.000000 -0.000001 0.024900 -0.000000 0.061300 -1.327432 -0.372932 8.782148 25.206128 24.545516 13.007972 0.000006 0.000002 -54.840234 -0.000001 -0.000001 0.000001 -0.024900 -0.000000 0.061300 0.805844 5.505262 4.957701 31.780607 -12.834477 -11.308650 0.000007 -0.000011 55.304062 -0.000001 0.000001 0.000000 0.049900 0.000000 -0.000000 -21.054902 6.037593 2.741669 21.665312 0.386964 -3.254505 36.451377 -9.849696 6.830533 -0.000003 -0.000001 -0.000005 -0.049900 0.000000 0.000000 0.157258 11.025649 -20.653008 75.961969 -1.505579 4.858369 23.436380 -20.670067 5.350477 0.000002 -0.000000 -0.000000 
0.029910 0.019436 0.475057 -6.550315 26.036341 -39.704737 -0.000000 -0.000000 0.071600 12.454851 -3.989100 7.834967 1.225728 -1.275602 1.942766 1.242119 -1.262018 1.897586 -0.000000 -0.000000 0.071600 2.699693 -0.567881 -0.774194 0.000000 0.000000 0.000001 0.024900 0.000000 0.061300 -1.192091 0.310624 8.414318 33.369620 28.724415 2.219980 0.000001 0.000025 -62.857924 0.000003 0.000001 -0.000000 -0.024900 0.000000 0.061300 0.856062 3.332580 5.733485 34.972105 -13.240591 -11.135588 -0.000003 -0.000001 61.629637 -0.000000 -0.000001 0.000001 0.049900 -0.000000 -0.000000 -19.020173 5.056410 0.139162 10.799354 -2.855762 -1.759511 37.038436 3.385706 0.692761 0.000002 0.000001 0.000001 -0.049900 -0.000000 -0.000000 -0.948659 8.148677 -20.024125 70.067263 -2.742079 6.025204 21.346230 -23.522683 6.580611 -0.000001 -0.000000 -0.000001 
0.052191 0.038155 0.491379 -4.085967 23.571574 -38.158710 -0.000000 -0.000000 0.071600 11.152744 -5.148611 7.205191 1.653694 -1.757035 1.746403 1.667298 -1.749810 1.686841 0.000000 0.000000 0.071600 2.043440 -0.998963 -0.422755 -0.000000 -0.000000 0.000000 0.024900 0.000000 0.061300 -1.046255 1.659268 7.964378 40.019803 29.540599 -9.157580 -0.000000 0.000012 -69.949545 0.000001 -0.000000 -0.000001 -0.024900 0.000000 0.061300 0.827909 -0.782044 5.753566 36.218615 -15.160110 -12.209873 0.000012 -0.000013 68.915953 -0.000001 0.000002 -0.000003 0.049900 -0.000000 -0.000000 -18.437462 4.752523 -1.656335 5.469246 -4.199053 -1.656039 35.424660 11.893557 -10.926274 0.000002 0.000002 -0.000002 -0.049900 -0.000000 -0.000000 -3.115248 6.358342 -17.464293 65.977046 -4.390001 8.834229 13.211905 -25.868636 7.238255 0.000001 -0.000001 0.000001 
0.077336 0.059485 0.505915 -3.068624 20.136540 -36.228836 -0.000000 -0.000000 0.071600 12.153479 -4.537047 6.978075 1.209171 -1.449051 1.648250 1.224250 -1.439625 1.601175 -0.000000 -0.000000 0.071600 1.433463 -1.078358 -0.103581 -0.000000 -0.000000 0.000000 0.024900 -0.000000 0.061300 -0.746843 4.030234 6.175529 44.558064 29.031080 -20.276043 -0.000003 0.000012 -70.607108 0.000002 -0.000001 0.000001 -0.024900 0.000000 0.061300 0.923118 -3.008226 5.349928 36.862934 -22.227589 -7.176256 -0.000004 -0.000004 70.910478 0.000002 -0.000000 -0.000001 0.049900 -0.000000 0.000000 -24.760805 5.710983 -0.823092 22.725556 -1.821843 -1.610469 22.638850 13.740907 -13.774625 0.000002 -0.000000 -0.000003 -0.049900 -0.000000 0.000000 -7.007307 5.971600 -15.114041 61.315086 -4.140056 9.656903 11.650067 -23.626738 8.237633 0.000004 -0.000001 -0.000002 
0.102250 0.080952 0.513792 -3.483854 16.922675 -33.952167 0.000000 -0.000000 0.071600 13.901499 -3.380197 6.534653 1.566478 -1.245576 1.548491 1.581304 -1.235841 1.502388 0.000000 -0.000000 0.071600 0.759126 -0.747842 0.258417 0.000000 -0.000000 0.000000 0.024900 -0.000000 0.061300 -0.294801 7.027953 3.904902 44.300429 28.846040 -30.956077 0.000006 0.000007 -63.828876 0.000000 0.000000 0.000002 -0.024900 -0.000000 0.061300 1.032034 -5.046855 5.133419 35.969258 -28.981223 -1.351053 0.000003 -0.000006 69.966477 -0.000001 0.000001 -0.000003 0.049900 0.000000 -0.000000 -29.904621 8.334660 1.169185 46.026883 -0.898169 4.592177 10.716035 13.632257 -9.764117 -0.000000 -0.000002 -0.000002 -0.049900 0.000000 -0.000000 -10.746384 5.568328 -11.278279 58.636211 -2.297997 10.074795 8.275592 -19.066932 9.021469 0.000004 -0.000000 -0.000001 
0.125035 0.100983 0.515594 -3.816241 14.716575 -30.707492 0.000000 0.000000 0.071600 15.473959 -3.480217 5.147082 1.758516 -1.290716 1.132951 1.768401 -1.287919 1.081461 0.000000 -0.000000 0.071600 0.494173 -0.295122 0.708776 0.000001 -0.000000 -0.000002 0.024900 -0.000000 0.061300 0.205588 10.046975 1.575120 44.578001 29.572414 -41.910082 -0.000008 0.000000 -55.616369 0.000000 0.000002 -0.000001 -0.024900 -0.000000 0.061300 1.160473 -6.856879 5.138414 36.662745 -35.565181 6.543215 -0.000002 -0.000012 64.078615 0.000001 -0.000000 0.000000 0.049900 0.000000 -0.000000 -31.738656 9.053222 3.863314 70.490687 -0.572282 6.280137 3.239648 10.859487 -6.198644 0.000003 0.000001 -0.000003 -0.049900 -0.000000 0.000000 -13.264597 4.863832 -8.359562 56.200268 -0.657123 10.107050 4.986451 -16.256672 7.746754 -0.000002 -0.000002 -0.000003 
0.146625 0.120898 0.512409 -2.714046 12.348597 -26.003010 -0.000000 -0.000000 0.071600 15.502911 -4.616479 2.613517 1.718437 -1.386492 0.384693 1.717789 -1.395206 0.335814 0.000000 -0.000000 0.071600 0.098337 0.001842 1.222800 0.000000 -0.000000 -0.000001 0.024900 -0.000000 0.061300 0.722148 12.748690 -0.548040 44.970823 29.393931 -53.130908 -0.000002 0.000022 -48.660409 0.000000 0.000003 -0.000001 -0.024900 -0.000000 0.061300 1.275260 -8.824090 4.916263 37.086657 -42.667502 13.034570 0.000004 -0.000001 55.705022 0.000001 -0.000001 0.000000 0.049900 -0.000000 0.000000 -30.367513 8.155756 3.646184 90.768850 -1.225180 3.724426 -0.012514 8.618086 -3.832363 0.000004 0.000001 -0.000000 -0.049900 0.000000 0.000000 -16.567548 4.268194 -6.189461 55.237546 0.605747 9.991218 -0.708759 -18.075693 2.332776 -0.000001 -0.000001 -0.000001 
0.165336 0.140454 0.502416 -1.178748 9.893464 -20.058302 0.000000 0.000000 0.071600 15.280993 -5.357562 -1.134733 1.751774 -1.374718 -0.646502 1.737977 -1.399309 -0.686199 -0.000000 0.000000 0.071600 -0.871807 0.121698 1.780025 0.000001 0.000000 0.000000 0.024900 0.000000 0.061300 1.065860 13.514110 -2.002424 44.097624 25.499055 -60.608005 -0.000004 -0.000003 -57.818016 -0.000001 0.000001 0.000004 -0.024900 0.000000 0.061300 1.215338 -10.147347 3.895330 36.836214 -50.953064 17.080597 0.000002 -0.000013 49.481039 -0.000001 0.000000 -0.000001 0.049900 0.000000 -0.000000 -25.997542 3.908201 -0.081241 106.748548 -2.284624 5.619459 -1.644473 4.297347 -2.095390 0.000000 0.000001 0.000001 -0.049900 0.000000 -0.000000 -20.374794 5.094860 -5.467618 57.078460 1.072120 7.740437 -9.093019 -17.718160 -2.004240 -0.000002 -0.000001 -0.000001 
0.186570 0.158108 0.493720 0.954346 5.429723 -13.979639 -0.000000 -0.000000 0.071600 13.772443 -4.053761 -6.131416 1.493786 -0.913251 -1.878857 1.480266 -0.947365 -1.897474 -0.000000 0.000000 0.071600 -1.609594 0.295129 2.404515 -0.000001 0.000000 0.000001 0.024900 0.000000 0.061300 1.173612 13.184290 -2.562819 40.971081 20.578131 -65.525584 0.000013 0.000013 -73.918431 -0.000002 -0.000000 0.000001 -0.024900 0.000000 0.061300 1.043829 -10.455669 2.667388 40.411706 -59.296315 20.778677 0.000016 -0.000022 45.782382 0.000000 0.000001 -0.000000 0.049900 -0.000000 0.000000 -21.561094 -4.083348 -6.349959 116.453837 -2.392378 8.294393 -3.618075 2.847808 -0.760559 0.000000 0.000001 -0.000001 -0.049900 -0.000000 0.000000 -24.036373 10.028181 -6.626204 57.979652 0.763918 4.967729 -19.967273 -12.848136 -2.953768 0.000001 0.000001 0.000001 
0.213245 0.172819 0.494365 2.007720 0.559231 -8.086450 0.000000 -0.000000 0.071600 13.731963 -1.760070 -11.341105 1.167621 -0.246084 -3.101536 1.173008 -0.280840 -3.101095 0.000000 0.000000 0.071600 -1.898378 0.496005 3.084915 -0.000002 -0.000000 0.000000 0.024900 -0.000000 0.061300 1.250455 12.639105 -3.054382 34.119131 22.710637 -70.352431 0.000010 0.000003 -86.762267 0.000001 -0.000001 -0.000000 -0.024900 -0.000000 0.061300 0.884573 -10.690147 1.599539 44.111821 -65.070434 22.165511 0.000007 0.000000 43.986135 -0.000000 0.000001 -0.000000 0.049900 -0.000000 -0.000000 -18.715663 -13.492400 -11.852185 118.598667 -2.206573 8.362056 -7.464511 1.513513 1.872812 -0.000000 0.000001 -0.000003 -0.049900 0.000000 -0.000000 -25.149588 17.244051 -7.528309 55.393486 1.091027 2.490398 -23.459769 -13.628702 -3.656896 -0.000002 0.000000 0.000000 
0.244798 0.185062 0.506992 4.028609 -3.636057 -3.555411 0.000000 -0.000000 0.071600 13.172249 0.154105 -15.612972 1.001012 0.142125 -4.115288 1.027723 0.102757 -4.103324 -0.000000 0.000000 0.071600 -1.983970 0.872708 3.753114 -0.000000 -0.000001 -0.000001 0.024900 0.000000 0.061300 1.328695 11.839394 -3.658413 27.878093 31.444593 -73.297260 -0.000001 0.000012 -98.087623 -0.000001 0.000002 0.000003 -0.024900 0.000000 0.061300 0.918946 -10.394845 1.810004 48.869870 -66.370458 22.707497 0.000016 -0.000006 47.155220 -0.000000 -0.000000 0.000000 0.049900 -0.000000 -0.000000 -21.064612 -21.935745 -12.549381 116.586029 -2.260070 7.044086 -9.234237 2.791806 2.718524 -0.000001 -0.000000 -0.000000 -0.049900 -0.000000 0.000000 -25.286948 23.412295 -7.326977 47.960075 2.500932 0.170035 -15.935202 -18.226647 -3.554653 -0.000001 0.000001 -0.000001 
0.285001 0.194660 0.530638 5.935407 -6.968644 -0.259635 -0.000000 0.000000 0.071600 12.562606 1.245902 -17.808286 0.856546 0.430406 -4.647462 0.902835 0.393210 -4.626580 0.000000 0.000000 0.071600 -1.634341 1.314361 4.152269 -0.000002 0.000000 0.000002 0.024900 0.000000 0.061300 1.325283 11.359808 -3.764839 27.174261 26.447609 -76.117896 0.000018 0.000003 -100.672098 -0.000002 0.000001 0.000002 -0.024900 -0.000000 0.061300 0.936591 -9.021868 2.268242 54.678915 -64.928632 23.126416 0.000021 -0.000022 54.197329 0.000000 -0.000000 0.000000 0.049900 0.000000 -0.000000 -24.790657 -28.105590 -7.245567 113.999320 -2.188850 6.573206 -10.651607 3.495843 4.639948 -0.000001 -0.000001 0.000003 -0.049900 0.000000 -0.000000 -20.917722 27.816202 -8.642313 32.268874 5.154166 -3.858117 0.248278 -21.805097 -1.217260 -0.000001 0.000001 -0.000000 
